<svg version="1.1" viewBox="0.0 0.0 100.0 40.0" fill="none" stroke="none" stroke-linecap="square" stroke-miterlimit="10" xmlns:xlink="http://www.w3.org/1999/xlink" xmlns="http://www.w3.org/2000/svg"><clipPath id="p.0"><path d="m0 0l100.0 0l0 40.0l-100.0 0l0 -40.0z" clip-rule="nonzero"/></clipPath><g clip-path="url(#p.0)"><path fill="#000000" fill-opacity="0.0" d="m0 0l100.0 0l0 40.0l-100.0 0z" fill-rule="evenodd"/><defs><linearGradient id="p.1" gradientUnits="userSpaceOnUse" gradientTransform="matrix(6.101532477215526 0.0 0.0 6.101532477215526 0.0 0.0)" spreadMethod="pad" x1="0.22433157724075908" y1="0.22750011331980088" x2="0.22430947032026927" y2="6.32903259049528"><stop offset="0.0" stop-color="#4a86e8"/><stop offset="1.0" stop-color="#9900ff"/></linearGradient></defs><path fill="url(#p.1)" d="m1.3687664 7.5933l0 0c0 -3.4268432 2.7780056 -6.2048483 6.204849 -6.2048483l84.85014 0c1.6456299 0 3.223854 0.6537231 4.3874893 1.8173581c1.1636353 1.1636348 1.8173599 2.7418623 1.8173599 4.3874903l0 24.81865c0 3.4268417 -2.7780075 6.2048492 -6.2048492 6.2048492l-84.85014 0l0 0c-3.4268432 0 -6.204849 -2.7780075 -6.204849 -6.2048492z" fill-rule="evenodd"/><path stroke="#000000" stroke-width="2.0" stroke-linejoin="round" stroke-linecap="butt" d="m1.3687664 7.5933l0 0c0 -3.4268432 2.7780056 -6.2048483 6.204849 -6.2048483l84.85014 0c1.6456299 0 3.223854 0.6537231 4.3874893 1.8173581c1.1636353 1.1636348 1.8173599 2.7418623 1.8173599 4.3874903l0 24.81865c0 3.4268417 -2.7780075 6.2048492 -6.2048492 6.2048492l-84.85014 0l0 0c-3.4268432 0 -6.204849 -2.7780075 -6.204849 -6.2048492z" fill-rule="evenodd"/><defs><linearGradient id="p.2" gradientUnits="userSpaceOnUse" gradientTransform="matrix(7.726900145037332 0.0 0.0 7.726900145037332 0.0 0.0)" spreadMethod="pad" x1="4.3876141555713986" y1="4.534472595228662" x2="12.114514300608732" y2="4.534472595228662"><stop offset="0.0" stop-color="#ff0000"/><stop offset="0.25" stop-color="#ffff00"/><stop offset="0.5" stop-color="#00ff00"/><stop offset="0.75" stop-color="#4a86e8"/><stop offset="1.0" stop-color="#9900ff"/></linearGradient></defs><path fill="url(#p.2)" d="m38.68747 12.5268545l-4.784813 22.51056l4.6998444 0l2.012703 -9.4630375l8.348202 0l-2.012703 9.4630375l4.699848 0l4.784813 -22.51056l-4.6998444 0l-1.87463 8.809867l-8.348198 0l1.8746262 -8.809867z" fill-rule="evenodd"/><defs><linearGradient id="p.3" gradientUnits="userSpaceOnUse" gradientTransform="matrix(7.726900145037332 0.0 0.0 7.726900145037332 0.0 0.0)" spreadMethod="pad" x1="4.3876141555713986" y1="4.534472595228662" x2="12.114514300608732" y2="4.534472595228662"><stop offset="0.0" stop-color="#ff0000"/><stop offset="0.25" stop-color="#ffff00"/><stop offset="0.5" stop-color="#00ff00"/><stop offset="0.75" stop-color="#4a86e8"/><stop offset="1.0" stop-color="#9900ff"/></linearGradient></defs><path fill="url(#p.3)" d="m60.21091 17.81065l-2.5437584 11.94297c-0.7470207 3.5225334 0.6408043 5.2837944 4.163479 5.2837944l9.527142 0l3.6642914 -17.226765l-4.503357 0l-2.8305283 13.31304l-4.7635727 0c-0.6939125 0 -0.9665222 -0.348711 -0.8178253 -1.0461369l2.607483 -12.266903z" fill-rule="evenodd"/><defs><linearGradient id="p.4" gradientUnits="userSpaceOnUse" gradientTransform="matrix(7.726900145037332 0.0 0.0 7.726900145037332 0.0 0.0)" spreadMethod="pad" x1="4.3876141555713986" y1="4.534472595228662" x2="12.114514300608732" y2="4.534472595228662"><stop offset="0.0" stop-color="#ff0000"/><stop offset="0.25" stop-color="#ffff00"/><stop offset="0.5" stop-color="#00ff00"/><stop offset="0.75" stop-color="#4a86e8"/><stop offset="1.0" stop-color="#9900ff"/></linearGradient></defs><path fill="url(#p.4)" d="m88.1526 21.724377c0.69745636 0 0.9718323 0.34871292 0.823143 1.0461369l-1.5506897 7.3070393c-0.14868927 0.69742584 -0.5717697 1.0461369 -1.2692184 1.0461369l-4.7635727 0l1.9967651 -9.399313zm-6.967453 -10.833109l-5.130005 24.146147l9.527153 0c3.526207 0 5.6628265 -1.761261 6.4098434 -5.2837944l1.417923 -6.659174c0.75055695 -3.5225296 -0.63726807 -5.2837963 -4.1634827 -5.2837963l-5.0237885 0l1.4657135 -6.919382z" fill-rule="evenodd"/><path fill="#ff0000" d="m18.047934 4.868753c-4.9005547 0 -7.8703012 2.4478326 -8.909238 7.343497l-3.2947102 15.476847c-1.0389371 4.895666 0.8918729 7.3434963 5.792428 7.3434963l16.437973 0l3.8995705 -18.358742l-12.068745 0l-1.2026062 5.678402l5.77108 0l-1.4872437 6.9948235l-9.884131 0c-0.87289715 0 -1.2168369 -0.4364357 -1.0318213 -1.3093052l3.4370308 -16.174194c0.18501568 -0.87761307 0.7139721 -1.3164215 1.5868683 -1.3164215l15.306528 0l0.7258339 -3.408464l-2.4479065 -2.2699375z" fill-rule="evenodd"/><path fill="#ffffff" fill-opacity="0.3987" d="m18.047934 4.8690133c-4.9005547 0 -7.8703012 2.4478326 -8.909238 7.343497l-3.2947102 15.476848c-1.0389371 4.895664 0.8918729 7.343498 5.792428 7.343498l16.437973 0l3.8995705 -18.358744l-12.068745 0l-1.2026062 5.678402l5.77108 0l-1.4872437 6.9948215l-9.884131 0c-0.87289715 0 -1.2168369 -0.4364357 -1.0318213 -1.3093052l3.4370308 -16.174194c0.18501568 -0.87761307 0.7139721 -1.3164215 1.5868683 -1.3164215l15.306528 0l0.7258339 -3.408464l-2.4479065 -2.2699375z" fill-rule="evenodd"/><path fill="#ffffff" fill-opacity="0.3987" d="m38.68747 12.5268545l-4.784813 22.51056l4.6998444 0l2.012703 -9.4630375l8.348202 0l-2.012703 9.4630375l4.699848 0l4.784813 -22.51056l-4.6998444 0l-1.87463 8.809867l-8.348198 0l1.8746262 -8.809867z" fill-rule="evenodd"/><path fill="#ffffff" fill-opacity="0.3987" d="m60.21091 17.81065l-2.5437584 11.94297c-0.7470207 3.5225334 0.6408043 5.2837944 4.163479 5.2837944l9.527142 0l3.6642914 -17.226765l-4.503357 0l-2.8305283 13.31304l-4.7635727 0c-0.6939125 0 -0.9665222 -0.348711 -0.8178253 -1.0461369l2.607483 -12.266903z" fill-rule="evenodd"/><path fill="#ffffff" fill-opacity="0.3987" d="m88.1526 21.724377c0.69745636 0 0.9718323 0.34871292 0.823143 1.0461369l-1.5506897 7.3070393c-0.14868927 0.69742584 -0.5717697 1.0461369 -1.2692184 1.0461369l-4.7635727 0l1.9967651 -9.399313zm-6.967453 -10.833109l-5.130005 24.146147l9.527153 0c3.526207 0 5.6628265 -1.761261 6.4098434 -5.2837944l1.417923 -6.659174c0.75055695 -3.5225296 -0.63726807 -5.2837963 -4.1634827 -5.2837963l-5.0237885 0l1.4657135 -6.919382z" fill-rule="evenodd"/><defs><linearGradient id="p.5" gradientUnits="userSpaceOnUse" gradientTransform="matrix(5.5009795032539754 0.0 0.0 5.5009795032539754 0.0 0.0)" spreadMethod="pad" x1="1.0043183134481724" y1="0.8841222192391243" x2="1.0031980641883418" y2="6.385101608426284"><stop offset="0.0" stop-color="#ffffff" stop-opacity="0.8039216"/><stop offset="0.5" stop-color="#ffffff" stop-opacity="0.0"/><stop offset="1.0" stop-color="#ffffff" stop-opacity="0.0"/></linearGradient></defs><path fill="url(#p.5)" d="m18.038725 4.869167c-4.915264 0 -7.893923 2.4552422 -8.935978 7.365726l-3.3045988 15.523696c-1.0420551 4.910486 0.89454985 7.3657284 5.8098135 7.3657284l16.487307 0l3.911274 -18.414318l-12.104965 0l-1.2062149 5.695591l5.7884007 0l-1.4917088 7.015997l-9.913796 0c-0.87551594 0 -1.2204885 -0.4377575 -1.0349169 -1.3132687l3.4473457 -16.223154c0.18557167 -0.88027096 0.71611595 -1.3204069 1.5916328 -1.3204069l15.352465 0l0.7280121 -3.4187818l-2.4552517 -2.2768087z" fill-rule="evenodd"/><defs><linearGradient id="p.6" gradientUnits="userSpaceOnUse" gradientTransform="matrix(4.922543867288223 0.0 0.0 4.922543867288223 0.0 0.0)" spreadMethod="pad" x1="6.866289219328193" y1="2.2014506110829752" x2="6.865286876686587" y2="7.12399437632124"><stop offset="0.0" stop-color="#ffffff" stop-opacity="0.8039216"/><stop offset="0.5" stop-color="#ffffff" stop-opacity="0.0"/><stop offset="1.0" stop-color="#ffffff" stop-opacity="0.0"/></linearGradient></defs><path fill="url(#p.6)" d="m38.598763 12.489471l-4.7991524 22.578705l4.713928 0l2.018734 -9.491686l8.373215 0l-2.018734 9.491686l4.713928 0l4.7991524 -22.578705l-4.713928 0l-1.8802452 8.8365345l-8.373215 0l1.8802452 -8.8365345z" fill-rule="evenodd"/><defs><linearGradient id="p.7" gradientUnits="userSpaceOnUse" gradientTransform="matrix(4.922543867288223 0.0 0.0 4.922543867288223 0.0 0.0)" spreadMethod="pad" x1="6.866289219328193" y1="2.2014506110829752" x2="6.865286876686587" y2="7.12399437632124"><stop offset="0.0" stop-color="#ffffff" stop-opacity="0.8039216"/><stop offset="0.5" stop-color="#ffffff" stop-opacity="0.0"/><stop offset="1.0" stop-color="#ffffff" stop-opacity="0.0"/></linearGradient></defs><path fill="url(#p.7)" d="m60.18669 17.78926l-2.5513802 11.979124c-0.74925613 3.5331936 0.6427269 5.2997913 4.175953 5.2997913l9.555695 0l3.67527 -17.278915l-4.5168533 0l-2.8390121 13.353342l-4.7778435 0c-0.6959915 0 -0.9694176 -0.34976768 -0.82027817 -1.049305l2.6152954 -12.304037z" fill-rule="evenodd"/><defs><linearGradient id="p.8" gradientUnits="userSpaceOnUse" gradientTransform="matrix(4.922543867288223 0.0 0.0 4.922543867288223 0.0 0.0)" spreadMethod="pad" x1="6.866289219328193" y1="2.2014506110829752" x2="6.865286876686587" y2="7.12399437632124"><stop offset="0.0" stop-color="#ffffff" stop-opacity="0.8039216"/><stop offset="0.5" stop-color="#ffffff" stop-opacity="0.0"/><stop offset="1.0" stop-color="#ffffff" stop-opacity="0.0"/></linearGradient></defs><path fill="url(#p.8)" d="m88.21211 21.714834c0.6995468 0 0.9747467 0.3497696 0.8255997 1.0493069l-1.5553284 7.329157c-0.1491394 0.6995373 -0.5734787 1.049305 -1.2730255 1.049305l-4.7778473 0l2.0027542 -9.427769zm-6.9883347 -10.865901l-5.1453705 24.219242l9.555695 0c3.5367737 0 5.6797943 -1.7665977 6.4290466 -5.2997913l1.4221725 -6.6793327c0.7528076 -3.5331936 -0.6391754 -5.2997913 -4.1759567 -5.2997913l-5.0388412 0l1.470108 -6.9403276z" fill-rule="evenodd"/></g></svg>