<svg viewBox="0 0 710.916 277.493" fill="none" stroke-linecap="square" stroke-miterlimit="10" xmlns="http://www.w3.org/2000/svg"><clipPath id="a"><path d="M0 0h710.916v277.493H0z"/></clipPath><g clip-path="url(#a)"><path d="M0 0h710.916v277.493H0z"/><defs><linearGradient id="b" gradientUnits="userSpaceOnUse" gradientTransform="scale(16.29171)" spreadMethod="pad" x1=".378" y1=".37" x2=".378" y2="16.662"><stop offset="0" stop-color="#8c8c8c"/><stop offset="1" stop-color="#404040"/></linearGradient></defs><path fill="url(#b)" d="M6.165 50.275c0-24.431 19.806-44.237 44.237-44.237h610.109a44.237 44.237 0 0 1 44.237 44.237v176.943c0 24.432-19.806 44.237-44.237 44.237H50.402c-24.431 0-44.237-19.805-44.237-44.237z" fill-rule="evenodd"/><path stroke="#000" stroke-width="12" stroke-linejoin="round" stroke-linecap="butt" d="M6.165 50.275c0-24.431 19.806-44.237 44.237-44.237h610.109a44.237 44.237 0 0 1 44.237 44.237v176.943c0 24.432-19.806 44.237-44.237 44.237H50.402c-24.431 0-44.237-19.805-44.237-44.237z"/><path d="M6.164 50.271c0-24.431 19.806-44.237 44.237-44.237H660.51a44.237 44.237 0 0 1 44.237 44.237v176.943c0 24.432-19.806 44.237-44.237 44.237H50.4c-24.431 0-44.237-19.805-44.237-44.237z"/><path stroke="#fff" stroke-width="4" stroke-linejoin="round" stroke-linecap="butt" d="M6.164 50.271c0-24.431 19.806-44.237 44.237-44.237H660.51a44.237 44.237 0 0 1 44.237 44.237v176.943c0 24.432-19.806 44.237-44.237 44.237H50.4c-24.431 0-44.237-19.805-44.237-44.237z"/><defs><linearGradient id="c" gradientUnits="userSpaceOnUse" gradientTransform="scale(21.22013)" spreadMethod="pad" x1="11.076" y1="11.9" x2="32.296" y2="11.9"><stop offset="0" stop-color="#4a86e8"/><stop offset=".5" stop-color="#0ff"/><stop offset="1" stop-color="#fff"/></linearGradient></defs><path fill="url(#c)" d="m271.123 82.74-36.087 169.78h35.446l15.18-71.372h62.962l-15.18 71.373h35.446l36.087-169.78h-35.446l-14.138 66.446H292.43l14.138-66.446z" fill-rule="evenodd"/><defs><linearGradient id="d" gradientUnits="userSpaceOnUse" gradientTransform="scale(21.22013)" spreadMethod="pad" x1="11.076" y1="11.9" x2="32.296" y2="11.9"><stop offset="0" stop-color="#4a86e8"/><stop offset=".5" stop-color="#0ff"/><stop offset="1" stop-color="#fff"/></linearGradient></defs><path fill="url(#d)" d="m433.452 122.592-19.185 90.077q-8.451 39.852 31.401 39.852h71.854l27.636-129.929h-33.964l-21.348 100.41h-35.927q-7.85 0-6.168-7.89l19.666-92.52z" fill-rule="evenodd"/><defs><linearGradient id="e" gradientUnits="userSpaceOnUse" gradientTransform="scale(21.22013)" spreadMethod="pad" x1="11.076" y1="11.9" x2="32.296" y2="11.9"><stop offset="0" stop-color="#4a86e8"/><stop offset=".5" stop-color="#0ff"/><stop offset="1" stop-color="#fff"/></linearGradient></defs><path fill="url(#e)" d="M644.188 152.11q7.89 0 6.208 7.89l-11.695 55.112q-1.682 7.89-9.573 7.89h-35.926l15.06-70.892zM591.64 70.405 552.95 252.52h71.853q39.892 0 48.343-39.852l10.694-50.225q8.49-39.852-31.401-39.852h-37.89l11.055-52.187z" fill-rule="evenodd"/><path fill="#4a86e8" d="M115.46 24.981q-55.44 0-67.194 55.387l-24.85 116.73q-11.753 55.386 43.687 55.386H191.08l29.41-138.466h-91.022l-9.07 42.828h43.525l-11.217 52.756H78.16q-9.874 0-7.782-9.875L96.3 77.738q2.094-9.93 11.968-9.929H223.71l5.474-25.707-18.462-17.12z" fill-rule="evenodd"/><path fill="#fff" fill-opacity=".399" d="M115.42 24.989q-55.44 0-67.194 55.386l-24.849 116.73Q11.624 252.49 67.064 252.49h123.975l29.411-138.466h-91.023l-9.07 42.828h43.526l-11.217 52.757H78.12q-9.876 0-7.782-9.875L96.26 77.745q2.093-9.929 11.968-9.929H223.67l5.474-25.707-18.462-17.12zm155.661 57.773-36.087 169.78h35.446l15.18-71.373h62.962l-15.18 71.373h35.446l36.087-169.78H369.49l-14.138 66.446H292.39l14.138-66.446zm162.329 39.851-19.185 90.077q-8.451 39.852 31.401 39.852h71.854l27.636-129.929h-33.964l-21.348 100.41h-35.927q-7.85 0-6.168-7.89l19.666-92.52zm210.736 29.518q7.89 0 6.208 7.89l-11.695 55.112q-1.682 7.89-9.573 7.89H593.16l15.06-70.892zm-52.548-81.705-38.69 182.116h71.853q39.892 0 48.343-39.852l10.694-50.225q8.49-39.852-31.401-39.852h-37.89l11.055-52.187z" fill-rule="evenodd"/><defs><linearGradient id="f" gradientUnits="userSpaceOnUse" gradientTransform="scale(15.08555)" spreadMethod="pad" x1="1.413" y1="1.653" x2="1.41" y2="16.738"><stop offset="0" stop-color="#fff" stop-opacity=".804"/><stop offset=".5" stop-color="#fff" stop-opacity="0"/><stop offset="1" stop-color="#fff" stop-opacity="0"/></linearGradient></defs><path fill="url(#f)" d="M115.43 24.972q-55.446 0-67.202 55.394L23.376 197.11q-11.755 55.392 43.692 55.393H191.06l29.414-138.484H129.44l-9.071 42.834h43.53l-11.217 52.763H78.126q-9.877 0-7.783-9.876L96.268 77.736q2.094-9.93 11.97-9.93h115.457l5.475-25.711-18.465-17.123z" fill-rule="evenodd"/><defs><linearGradient id="g" gradientUnits="userSpaceOnUse" gradientTransform="scale(13.49928)" spreadMethod="pad" x1="17.41" y1="5.208" x2="17.407" y2="18.708"><stop offset="0" stop-color="#fff" stop-opacity=".804"/><stop offset=".5" stop-color="#fff" stop-opacity="0"/><stop offset="1" stop-color="#fff" stop-opacity="0"/></linearGradient></defs><path fill="url(#g)" d="m271.115 82.738-36.092 169.801h35.45l15.182-71.381h62.97l-15.181 71.381h35.45l36.092-169.801h-35.45l-14.14 66.454h-62.971l14.14-66.454z" fill-rule="evenodd"/><defs><linearGradient id="h" gradientUnits="userSpaceOnUse" gradientTransform="scale(13.49928)" spreadMethod="pad" x1="17.41" y1="5.208" x2="17.407" y2="18.708"><stop offset="0" stop-color="#fff" stop-opacity=".804"/><stop offset=".5" stop-color="#fff" stop-opacity="0"/><stop offset="1" stop-color="#fff" stop-opacity="0"/></linearGradient></defs><path fill="url(#h)" d="m433.465 122.594-19.188 90.088q-8.451 39.857 31.405 39.857h71.863l27.64-129.945h-33.969l-21.35 100.423h-35.932q-7.85 0-6.169-7.891l19.668-92.532z" fill-rule="evenodd"/><defs><linearGradient id="i" gradientUnits="userSpaceOnUse" gradientTransform="scale(13.49928)" spreadMethod="pad" x1="17.41" y1="5.208" x2="17.407" y2="18.708"><stop offset="0" stop-color="#fff" stop-opacity=".804"/><stop offset=".5" stop-color="#fff" stop-opacity="0"/><stop offset="1" stop-color="#fff" stop-opacity="0"/></linearGradient></defs><path fill="url(#i)" d="M644.228 152.116q7.89 0 6.209 7.892l-11.697 55.118q-1.683 7.89-9.574 7.891h-35.931l15.062-70.9zM591.673 70.4l-38.696 182.14h71.863q39.897 0 48.35-39.858l10.695-50.231q8.492-39.857-31.405-39.857h-37.894L625.64 70.4z" fill-rule="evenodd"/><path d="M115.43 24.973q-55.448 0-67.203 55.393L23.375 197.111q-11.754 55.393 43.693 55.393h123.991l29.415-138.483h-91.035l-9.071 42.833h43.531l-11.218 52.763H78.125q-9.877 0-7.783-9.876L96.267 77.736q2.094-9.93 11.97-9.93h115.457l5.475-25.71-18.464-17.123z"/><path stroke="#000" stroke-width="12" stroke-linejoin="round" stroke-linecap="butt" d="M115.43 24.973q-55.448 0-67.203 55.393L23.375 197.111q-11.754 55.393 43.693 55.393h123.991l29.415-138.483h-91.035l-9.071 42.833h43.531l-11.218 52.763H78.125q-9.877 0-7.783-9.876L96.267 77.736q2.094-9.93 11.97-9.93h115.457l5.475-25.71-18.464-17.123z"/><path d="m271.115 82.74-36.092 169.8h35.45l15.182-71.381h62.97l-15.181 71.381h35.45l36.092-169.8h-35.45l-14.14 66.454h-62.971l14.14-66.454zm162.35 39.857-19.188 90.088q-8.451 39.855 31.405 39.856h71.863l27.64-129.944h-33.969l-21.35 100.422h-35.932q-7.85 0-6.169-7.89l19.668-92.532zm210.763 29.522q7.89 0 6.209 7.89l-11.697 55.12q-1.683 7.89-9.574 7.89h-35.931l15.062-70.9zm-52.555-81.717-38.696 182.14h71.863q39.897 0 48.35-39.857l10.695-50.232q8.492-39.855-31.405-39.856h-37.894l11.055-52.195z"/><path stroke="#000" stroke-width="12" stroke-linejoin="round" stroke-linecap="butt" d="m271.115 82.74-36.092 169.8h35.45l15.182-71.381h62.97l-15.181 71.381h35.45l36.092-169.8h-35.45l-14.14 66.454h-62.971l14.14-66.454zm162.35 39.857-19.188 90.088q-8.451 39.855 31.405 39.856h71.863l27.64-129.944h-33.969l-21.35 100.422h-35.932q-7.85 0-6.169-7.89l19.668-92.532zm210.763 29.522q7.89 0 6.209 7.89l-11.697 55.12q-1.683 7.89-9.574 7.89h-35.931l15.062-70.9zm-52.555-81.717-38.696 182.14h71.863q39.897 0 48.35-39.857l10.695-50.232q8.492-39.855-31.405-39.856h-37.894l11.055-52.195z"/><path d="M115.43 24.973q-55.446 0-67.202 55.394L23.376 197.112q-11.755 55.393 43.692 55.393H191.06l29.414-138.484H129.44l-9.071 42.834h43.53l-11.217 52.763H78.126q-9.877 0-7.783-9.876L96.268 77.737q2.094-9.93 11.97-9.93h115.457l5.475-25.711-18.465-17.123z"/><path stroke="#fff" stroke-width="4" stroke-linejoin="round" stroke-linecap="butt" d="M115.43 24.973q-55.446 0-67.202 55.394L23.376 197.112q-11.755 55.393 43.692 55.393H191.06l29.414-138.484H129.44l-9.071 42.834h43.53l-11.217 52.763H78.126q-9.877 0-7.783-9.876L96.268 77.737q2.094-9.93 11.97-9.93h115.457l5.475-25.711-18.465-17.123z"/><path d="M271.115 82.739 235.023 252.54h35.45l15.182-71.381h62.97l-15.181 71.381h35.45l36.092-169.8h-35.45l-14.14 66.454h-62.971l14.14-66.454zm162.35 39.856-19.188 90.088q-8.451 39.857 31.405 39.857h71.863l27.64-129.945h-33.969l-21.35 100.423h-35.932q-7.85 0-6.169-7.891l19.668-92.532zm210.763 29.522q7.89 0 6.209 7.892l-11.697 55.118q-1.683 7.89-9.574 7.891h-35.931l15.062-70.9zm-52.555-81.716-38.696 182.14h71.863q39.897 0 48.35-39.858l10.695-50.231q8.492-39.857-31.405-39.857h-37.894l11.055-52.194z"/><path stroke="#fff" stroke-width="4" stroke-linejoin="round" stroke-linecap="butt" d="M271.115 82.739 235.023 252.54h35.45l15.182-71.381h62.97l-15.181 71.381h35.45l36.092-169.8h-35.45l-14.14 66.454h-62.971l14.14-66.454zm162.35 39.856-19.188 90.088q-8.451 39.857 31.405 39.857h71.863l27.64-129.945h-33.969l-21.35 100.423h-35.932q-7.85 0-6.169-7.891l19.668-92.532zm210.763 29.522q7.89 0 6.209 7.892l-11.697 55.118q-1.683 7.89-9.574 7.891h-35.931l15.062-70.9zm-52.555-81.716-38.696 182.14h71.863q39.897 0 48.35-39.858l10.695-50.231q8.492-39.857-31.405-39.857h-37.894l11.055-52.194z"/></g></svg>