<svg viewBox="0 0 1421.982 551.076" fill="none" stroke-linecap="square" stroke-miterlimit="10" xmlns="http://www.w3.org/2000/svg"><clipPath id="a"><path d="M0 0h1421.982v551.076H0z"/></clipPath><g clip-path="url(#a)"><path d="M0 0h1421.982v551.076H0z"/><defs><linearGradient id="b" gradientUnits="userSpaceOnUse" gradientTransform="rotate(.009)scale(23.10821)" spreadMethod="pad" x1=".357" y1=".37" x2=".357" y2="23.478"><stop offset="0" stop-color="#8c8c8c"/><stop offset="1" stop-color="#404040"/></linearGradient></defs><path fill="url(#b)" d="M8.25 97.545c0-49.153 39.847-89 89-89h1227.482a89 89 0 0 1 88.999 89V453.53c0 49.153-39.846 88.999-89 88.999H97.25c-49.153 0-89-39.846-89-89z" fill-rule="evenodd"/><path stroke="#fff" stroke-width="16" stroke-linejoin="round" stroke-linecap="butt" d="M8.25 97.545c0-49.153 39.847-89 89-89h1227.482a89 89 0 0 1 88.999 89V453.53c0 49.153-39.846 88.999-89 88.999H97.25c-49.153 0-89-39.846-89-89z"/><defs><linearGradient id="c" gradientUnits="userSpaceOnUse" gradientTransform="scale(30.09915)" spreadMethod="pad" x1="15.573" y1="16.76" x2="45.672" y2="16.76"><stop offset="0" stop-color="#4a86e8"/><stop offset=".5" stop-color="#0ff"/><stop offset="1" stop-color="#fff"/></linearGradient></defs><path fill="url(#c)" d="M541.327 162.866 468.722 504.45h71.315l30.54-143.596h126.676l-30.54 143.596h71.314l72.605-341.584h-71.315L710.87 296.55H584.196l28.446-133.684z" fill-rule="evenodd"/><defs><linearGradient id="d" gradientUnits="userSpaceOnUse" gradientTransform="scale(30.09915)" spreadMethod="pad" x1="15.573" y1="16.76" x2="45.672" y2="16.76"><stop offset="0" stop-color="#4a86e8"/><stop offset=".5" stop-color="#0ff"/><stop offset="1" stop-color="#fff"/></linearGradient></defs><path fill="url(#d)" d="m867.922 243.044-38.6 181.227Q812.32 504.45 892.5 504.45h144.564l55.602-261.406h-68.334l-42.95 202.017H909.1q-15.794 0-12.41-15.874l39.566-186.143z" fill-rule="evenodd"/><defs><linearGradient id="e" gradientUnits="userSpaceOnUse" gradientTransform="scale(30.09915)" spreadMethod="pad" x1="15.573" y1="16.76" x2="45.672" y2="16.76"><stop offset="0" stop-color="#4a86e8"/><stop offset=".5" stop-color="#0ff"/><stop offset="1" stop-color="#fff"/></linearGradient></defs><path fill="url(#e)" d="M1291.907 302.432q15.874 0 12.49 15.875l-23.53 110.88q-3.384 15.874-19.26 15.874h-72.281l30.299-142.629zm-105.724-164.385-77.842 366.403h144.564q80.26 0 97.263-80.179l21.515-101.049q17.084-80.178-63.176-80.178h-76.23l22.24-104.997z" fill-rule="evenodd"/><path fill="#4a86e8" d="M228.142 46.659q-111.542 0-135.189 111.433L42.96 392.943q-23.647 111.433 87.894 111.433h249.43l59.172-278.582h-183.13l-18.25 86.166h87.571L303.08 418.102H153.097q-19.867 0-15.657-19.868l52.154-245.433q4.21-19.977 24.079-19.976h232.261l11.014-51.722-37.145-34.445z" fill-rule="evenodd"/><path fill="#fff" fill-opacity=".399" d="M228.142 46.66q-111.542 0-135.189 111.433L42.96 392.945q-23.647 111.433 87.894 111.433h249.43l59.172-278.583h-183.13l-18.25 86.166h87.571L303.08 418.103H153.097q-19.867 0-15.657-19.868l52.154-245.433q4.21-19.976 24.079-19.976h232.261l11.014-51.721-37.145-34.445zm313.185 116.206L468.722 504.45h71.315l30.54-143.596h126.676l-30.54 143.596h71.314l72.605-341.584h-71.315L710.87 296.55H584.196l28.446-133.684zm326.595 80.178-38.6 181.227Q812.32 504.45 892.5 504.45h144.564l55.602-261.406h-68.334l-42.95 202.017H909.1q-15.794 0-12.41-15.874l39.566-186.143zm423.985 59.388q15.874 0 12.49 15.875l-23.53 110.88q-3.384 15.874-19.26 15.874h-72.281l30.299-142.629zm-105.724-164.385-77.842 366.403h144.564q80.26 0 97.263-80.179l21.515-101.049q17.084-80.178-63.176-80.178h-76.23l22.24-104.997z" fill-rule="evenodd"/><defs><linearGradient id="f" gradientUnits="userSpaceOnUse" gradientTransform="scale(21.39633)" spreadMethod="pad" x1="1.814" y1="2.177" x2="1.81" y2="23.573"><stop offset="0" stop-color="#fff" stop-opacity=".804"/><stop offset=".5" stop-color="#fff" stop-opacity="0"/><stop offset="1" stop-color="#fff" stop-opacity="0"/></linearGradient></defs><path fill="url(#f)" d="M228.14 46.66q-111.543 0-135.19 111.433L42.958 392.945Q19.31 504.378 130.85 504.378h249.43l59.172-278.583h-183.13l-18.249 86.166h87.57l-22.567 106.142H153.094q-19.868 0-15.656-19.868l52.153-245.433q4.21-19.976 24.08-19.976h232.26l11.014-51.721-37.144-34.445z" fill-rule="evenodd"/><path stroke="#000" stroke-width="16" stroke-linejoin="round" stroke-linecap="butt" d="M228.14 46.66q-111.543 0-135.19 111.433L42.958 392.945Q19.31 504.378 130.85 504.378h249.43l59.172-278.583h-183.13l-18.249 86.166h87.57l-22.567 106.142H153.094q-19.868 0-15.656-19.868l52.153-245.433q4.21-19.976 24.08-19.976h232.26l11.014-51.721-37.144-34.445z"/><defs><linearGradient id="g" gradientUnits="userSpaceOnUse" gradientTransform="scale(19.14648)" spreadMethod="pad" x1="24.481" y1="7.2" x2="24.477" y2="26.347"><stop offset="0" stop-color="#fff" stop-opacity=".804"/><stop offset=".5" stop-color="#fff" stop-opacity="0"/><stop offset="1" stop-color="#fff" stop-opacity="0"/></linearGradient></defs><path fill="url(#g)" d="M541.324 162.864 468.72 504.448h71.315l30.54-143.596H697.25l-30.54 143.596h71.315l72.604-341.584h-71.315L710.87 296.55H584.194l28.445-133.685z" fill-rule="evenodd"/><defs><linearGradient id="h" gradientUnits="userSpaceOnUse" gradientTransform="scale(19.14648)" spreadMethod="pad" x1="24.481" y1="7.2" x2="24.477" y2="26.347"><stop offset="0" stop-color="#fff" stop-opacity=".804"/><stop offset=".5" stop-color="#fff" stop-opacity="0"/><stop offset="1" stop-color="#fff" stop-opacity="0"/></linearGradient></defs><path fill="url(#h)" d="M867.919 243.043 829.32 424.27q-17.003 80.178 63.177 80.178h144.564l55.601-261.405h-68.333l-42.95 202.017h-72.283q-15.794 0-12.41-15.875l39.567-186.142z" fill-rule="evenodd"/><defs><linearGradient id="i" gradientUnits="userSpaceOnUse" gradientTransform="scale(19.14648)" spreadMethod="pad" x1="24.481" y1="7.2" x2="24.477" y2="26.347"><stop offset="0" stop-color="#fff" stop-opacity=".804"/><stop offset=".5" stop-color="#fff" stop-opacity="0"/><stop offset="1" stop-color="#fff" stop-opacity="0"/></linearGradient></defs><path fill="url(#i)" d="M1291.904 302.431q15.875 0 12.49 15.875l-23.53 110.88q-3.384 15.874-19.259 15.874h-72.282l30.3-142.629zm-105.723-164.386-77.843 366.403h144.564q80.26 0 97.263-80.178l21.515-101.049q17.084-80.178-63.176-80.178h-76.23l22.24-104.998z" fill-rule="evenodd"/><path stroke="#000" stroke-width="16" stroke-linejoin="round" stroke-linecap="butt" d="M541.324 162.864 468.72 504.448h71.315l30.54-143.596H697.25l-30.54 143.596h71.315l72.604-341.584h-71.315L710.87 296.55H584.194l28.445-133.685zm326.595 80.179L829.32 424.27q-17.003 80.178 63.177 80.178h144.564l55.601-261.405h-68.333l-42.95 202.017h-72.283q-15.794 0-12.41-15.875l39.567-186.142zm423.985 59.388q15.875 0 12.49 15.875l-23.53 110.88q-3.384 15.874-19.259 15.874h-72.282l30.3-142.629zm-105.723-164.386-77.843 366.403h144.564q80.26 0 97.263-80.178l21.515-101.049q17.084-80.178-63.176-80.178h-76.23l22.24-104.998z"/><path d="M228.14 46.66q-111.543 0-135.19 111.433L42.958 392.945Q19.31 504.378 130.85 504.378h249.43l59.172-278.583h-183.13l-18.249 86.166h87.57l-22.567 106.142H153.094q-19.868 0-15.656-19.868l52.153-245.433q4.21-19.976 24.08-19.976h232.26l11.014-51.721-37.144-34.445z"/><path stroke="#000" stroke-width="16" stroke-linejoin="round" stroke-linecap="butt" d="M228.14 46.66q-111.543 0-135.19 111.433L42.958 392.945Q19.31 504.378 130.85 504.378h249.43l59.172-278.583h-183.13l-18.249 86.166h87.57l-22.567 106.142H153.094q-19.868 0-15.656-19.868l52.153-245.433q4.21-19.976 24.08-19.976h232.26l11.014-51.721-37.144-34.445z"/><path d="m541.327 162.868-72.605 341.584h71.315l30.54-143.596h126.676l-30.54 143.596h71.314l72.605-341.584h-71.315L710.87 296.553H584.196l28.446-133.685zm326.595 80.179-38.6 181.227q-17.002 80.178 63.177 80.178h144.564l55.602-261.405h-68.334l-42.95 202.017H909.1q-15.794 0-12.41-15.875l39.566-186.142zm423.985 59.388q15.874 0 12.49 15.874l-23.53 110.88q-3.384 15.875-19.26 15.875h-72.281l30.299-142.629zm-105.724-164.386-77.842 366.403h144.564q80.26 0 97.263-80.178l21.515-101.049q17.084-80.178-63.176-80.178h-76.23l22.24-104.998z"/><path stroke="#000" stroke-width="16" stroke-linejoin="round" stroke-linecap="butt" d="m541.327 162.868-72.605 341.584h71.315l30.54-143.596h126.676l-30.54 143.596h71.314l72.605-341.584h-71.315L710.87 296.553H584.196l28.446-133.685zm326.595 80.179-38.6 181.227q-17.002 80.178 63.177 80.178h144.564l55.602-261.405h-68.334l-42.95 202.017H909.1q-15.794 0-12.41-15.875l39.566-186.142zm423.985 59.388q15.874 0 12.49 15.874l-23.53 110.88q-3.384 15.875-19.26 15.875h-72.281l30.299-142.629zm-105.724-164.386-77.842 366.403h144.564q80.26 0 97.263-80.178l21.515-101.049q17.084-80.178-63.176-80.178h-76.23l22.24-104.998z"/></g></svg>