<svg version="1.1" viewBox="0.0 0.0 710.9160104986877 277.49343832021" fill="none" stroke="none" stroke-linecap="square" stroke-miterlimit="10" xmlns:xlink="http://www.w3.org/1999/xlink" xmlns="http://www.w3.org/2000/svg"><clipPath id="p.0"><path d="m0 0l710.916 0l0 277.49344l-710.916 0l0 -277.49344z" clip-rule="nonzero"/></clipPath><g clip-path="url(#p.0)"><path fill="#000000" fill-opacity="0.0" d="m0 0l710.916 0l0 277.49344l-710.916 0z" fill-rule="evenodd"/><defs><linearGradient id="p.1" gradientUnits="userSpaceOnUse" gradientTransform="matrix(16.29171112529147 0.0 0.0 16.29171112529147 0.0 0.0)" spreadMethod="pad" x1="0.3783553910018364" y1="0.37046625383952486" x2="0.37829639268326815" y2="16.662177379024165"><stop offset="0.0" stop-color="#dfeafb"/><stop offset="1.0" stop-color="#6e9ce7"/></linearGradient></defs><path fill="url(#p.1)" d="m6.164057 50.27516l0 0c0 -24.431477 19.805626 -44.237103 44.237106 -44.237103l610.10846 0c11.732422 0 22.984253 4.6606812 31.280334 12.956749c8.296082 8.296066 12.956726 19.547945 12.956726 31.280355l0 176.94312c0 24.431473 -19.805603 44.237106 -44.23706 44.237106l-610.10846 0l0 0c-24.431479 0 -44.237106 -19.805634 -44.237106 -44.237106z" fill-rule="evenodd"/><defs><linearGradient id="p.2" gradientUnits="userSpaceOnUse" gradientTransform="matrix(-11.670581341142581 0.0 0.0 -11.670581341142581 0.0 0.0)" spreadMethod="pad" x1="-0.528169232925905" y1="-11.545588129246442" x2="-0.5280411364077218" y2="-23.216169469686026"><stop offset="0.0" stop-color="#6d9eeb"/><stop offset="1.0" stop-color="#3c78d8"/></linearGradient></defs><path fill="url(#p.2)" d="m657.7275 270.9462l-604.5442 0c-12.470276 0 -24.429806 -4.9537964 -33.247627 -13.771606c-8.817819 -8.817841 -13.771618 -20.777359 -13.771618 -33.247635l0 -89.16974c0 -0.0032196045 0.002606392 -0.0058135986 0.005821705 -0.0058135986l698.57684 0.0058135986l0 0c0.0032348633 0 0.005859375 0.002609253 0.005859375 0.0058288574l-0.005859375 89.16391l0 0c0 25.968002 -21.051208 47.01924 -47.019226 47.01924z" fill-rule="evenodd"/><defs><linearGradient id="p.3" gradientUnits="userSpaceOnUse" gradientTransform="matrix(11.82915371206105 0.0 0.0 11.82915371206105 0.0 0.0)" spreadMethod="pad" x1="0.14583730843777906" y1="11.276800193637253" x2="0.1457944867998135" y2="23.105953905620797"><stop offset="0.0" stop-color="#f9d795"/><stop offset="1.0" stop-color="#edbe60"/></linearGradient></defs><path fill="url(#p.3)" d="m5.520046 134.50063c8.960629 -4.3355255 37.33727 4.9890594 54.74803 12.692902c17.410763 7.7038574 33.625546 29.001755 49.716534 33.53018c16.090988 4.5284424 25.92083 -5.2033997 46.8294 -6.3595734c20.90857 -1.1561737 59.930008 -3.7572174 78.62204 -0.5774231c18.692047 3.179779 19.751968 18.114609 33.530197 19.656158c13.778198 1.541565 37.19159 -9.153976 49.1391 -10.406815c11.94751 -1.2528534 10.405518 3.9496918 22.545929 2.8897552c12.140411 -1.0599213 33.434814 -7.3223877 50.2966 -9.249344c16.861755 -1.9269409 37.192017 -3.1793518 50.873993 -2.3123322c13.682007 0.86701965 18.981201 6.647415 31.217865 7.514435c12.236664 0.86701965 30.157928 0.28915405 42.202087 -2.3123322c12.044189 -2.6014862 18.211731 -11.947952 30.062988 -13.296585c11.851257 -1.3486481 29.29004 3.7593994 41.044617 5.204712c11.754639 1.4453278 21.196838 4.0455017 29.482971 3.4671936c8.286072 -0.57829285 13.681519 -3.0831146 20.233582 -6.9369965c6.552063 -3.853897 12.33374 -12.235794 19.078735 -16.186356c6.744995 -3.9505768 15.802734 -4.7226562 21.391052 -7.5170593c5.588379 -2.794403 7.069153 -8.004379 12.13916 -9.249344c5.0699463 -1.2449799 14.908569 -2.5564423 18.280823 1.7795258c3.3722534 4.3359528 1.9164429 14.993866 1.9527588 24.236221c0.036315918 9.24234 -1.1570435 18.884949 -1.7349243 31.21785c-0.57788086 12.332886 0.9654541 31.891953 -1.7322998 42.779526c-2.6976929 10.887573 -7.5166016 16.379257 -14.454041 22.545914c-6.937439 6.166687 -8.6710205 11.948822 -27.170593 14.454071c-18.499573 2.505249 -34.49475 0.48120117 -83.82678 0.5774536c-49.33203 0.096221924 -142.98468 0.096221924 -212.16537 0c-69.180664 -0.09625244 -153.48993 -0.19204712 -202.91862 -0.5774536c-49.428696 -0.38537598 -71.396324 -0.6749573 -93.65354 -1.7348938c-22.257214 -1.0599365 -29.580051 0.09667969 -39.889763 -4.6246643c-10.309711 -4.721344 -17.921698 -12.526688 -21.968504 -23.703415c-4.046807 -11.176743 -1.830709 -31.891083 -2.312336 -43.356964c-0.48162746 -11.465881 -0.31714773 -14.747589 -0.57742786 -25.438324c-0.26028013 -10.69072 -9.944881 -34.370514 -0.984252 -38.706024z" fill-rule="evenodd"/><path fill="#000000" fill-opacity="0.3987" d="m590.3446 198.85277c1.3709717 -2.3232727 2.9873047 -5.240158 6.0131226 -8.564316c3.0258179 -3.3241425 8.727478 -8.800949 12.141724 -11.380569c3.4142456 -2.5796204 6.01709 -3.5909882 8.343811 -4.097122c2.3267822 -0.5061188 3.2647095 -0.077423096 5.6168213 1.060379c2.3521729 1.1377869 5.511841 3.3888855 8.496094 5.766403c2.984253 2.3775177 5.135132 5.0590515 9.409424 8.498688c4.274292 3.4396362 11.582703 8.623795 16.236206 12.139099c4.6535645 3.5153198 6.8796997 5.437454 11.685059 8.952759c4.805359 3.5153198 11.912048 8.421265 17.146973 12.139114c5.2349243 3.7178497 11.076111 7.841202 14.262451 10.167969c3.1863403 2.3267822 4.197754 2.5279999 4.855652 3.7926636c0.65789795 1.2646484 0.25506592 1.4934387 -0.9081421 3.7952728c-1.163147 2.301834 -3.9208374 6.905075 -6.070862 10.015747c-2.1500244 3.110672 -4.173645 6.094055 -6.8294067 8.648285c-2.6557007 2.5542603 -7.157898 5.336853 -9.10498 6.677185c-1.9470825 1.340332 -0.8577881 1.6937866 -2.5773926 1.3648071c-1.7196045 -0.32894897 -2.8587036 -1.1636047 -7.7401733 -3.338562c-4.8814697 -2.1749878 -14.694641 -6.3477783 -21.548584 -9.711304c-6.853882 -3.3635101 -12.898071 -6.7519684 -19.574768 -10.469818c-6.676758 -3.7178345 -14.567383 -8.018372 -20.485596 -11.837265c-5.918152 -3.8188934 -11.372681 -7.777771 -15.023621 -11.076111c-3.650879 -3.2983398 -5.7891235 -5.852585 -6.881897 -8.713913c-1.0927124 -2.8613281 -0.09753418 -6.14917 0.3255005 -8.454071c0.42297363 -2.3049011 0.84161377 -3.0520477 2.2125854 -5.3753204z" fill-rule="evenodd"/><path fill="#ff0000" d="m347.7223 69.65569c-22.446503 0 -36.049133 11.212364 -40.80789 33.637085l-15.091095 70.89213c-4.7587585 22.424713 4.085144 33.637085 26.531647 33.637085l75.29251 0l17.861603 -84.09273l-55.279694 0l-5.508423 26.01007l26.433868 0l-6.8121643 32.039978l-45.273315 0c-3.9981995 0 -5.573578 -1.9990997 -4.7261353 -5.997299l15.742981 -74.08634c0.8474426 -4.0199356 3.2702637 -6.029907 7.2684937 -6.029907l70.11005 0l3.3246155 -15.612564l-11.212402 -10.397507z" fill-rule="evenodd"/><defs><linearGradient id="p.4" gradientUnits="userSpaceOnUse" gradientTransform="matrix(11.234528403314574 0.0 0.0 11.234528403314574 0.0 0.0)" spreadMethod="pad" x1="25.864432416907686" y1="18.49882383870393" x2="37.09896082022226" y2="18.49882383870393"><stop offset="0.0" stop-color="#ff0000"/><stop offset="0.25" stop-color="#ffff00"/><stop offset="0.5" stop-color="#00ff00"/><stop offset="0.75" stop-color="#4a86e8"/><stop offset="1.0" stop-color="#9900ff"/></linearGradient></defs><path fill="url(#p.4)" d="m347.7223 69.65927c-22.446503 0 -36.049133 11.212364 -40.80789 33.637085l-15.091095 70.89212c-4.7587585 22.424728 4.085144 33.637085 26.531647 33.637085l75.29251 0l17.861603 -84.09271l-55.279694 0l-5.508423 26.01007l26.433868 0l-6.8121643 32.039978l-45.273315 0c-3.9981995 0 -5.573578 -1.999115 -4.7261353 -5.9973145l15.742981 -74.086334c0.8474426 -4.0199356 3.2702637 -6.029907 7.2684937 -6.029907l70.11005 0l3.3246155 -15.612556l-11.212402 -10.397514z" fill-rule="evenodd"/><defs><linearGradient id="p.5" gradientUnits="userSpaceOnUse" gradientTransform="matrix(11.756264114790877 0.0 0.0 11.756264114790877 0.0 0.0)" spreadMethod="pad" x1="24.71582621849455" y1="5.922399456150841" x2="24.713431434992394" y2="17.678663327029707"><stop offset="0.0" stop-color="#ffffff" stop-opacity="0.8039216"/><stop offset="0.5" stop-color="#ffffff" stop-opacity="0.0"/><stop offset="1.0" stop-color="#ffffff" stop-opacity="0.0"/></linearGradient></defs><path fill="url(#p.5)" d="m347.72076 69.65099c-22.449432 0 -36.053802 11.213806 -40.81317 33.64141l-15.093048 70.90123c-4.759369 22.427597 4.085663 33.641403 26.535065 33.641403l75.30231 0l17.863922 -84.10352l-55.286896 0l-5.5091248 26.01342l26.437317 0l-6.81308 32.044098l-45.279175 0c-3.9987183 0 -5.5743103 -1.9993744 -4.7267456 -5.9980927l15.745026 -74.09585c0.8475342 -4.0204544 3.270691 -6.030678 7.2694397 -6.030678l70.11914 0l3.3250122 -15.614571l-11.213837 -10.3988495z" fill-rule="evenodd"/><path fill="#000000" fill-opacity="0.0" d="m347.72037 69.64722c-22.449402 0 -36.053802 11.213806 -40.81317 33.64141l-15.093048 70.90122c-4.759369 22.427612 4.085663 33.641403 26.535065 33.641403l75.30231 0l17.863922 -84.103516l-55.286896 0l-5.5091248 26.013412l26.437317 0l-6.81308 32.044098l-45.279175 0c-3.9987183 0 -5.5743103 -1.9993591 -4.7267456 -5.9980774l15.745026 -74.095856c0.8475342 -4.0204544 3.270691 -6.030678 7.2694397 -6.030678l70.11914 0l3.3250122 -15.614571l-11.213837 -10.3988495z" fill-rule="evenodd"/><path stroke="#000000" stroke-width="12.0" stroke-linejoin="round" stroke-linecap="butt" d="m347.72037 69.64722c-22.449402 0 -36.053802 11.213806 -40.81317 33.64141l-15.093048 70.90122c-4.759369 22.427612 4.085663 33.641403 26.535065 33.641403l75.30231 0l17.863922 -84.103516l-55.286896 0l-5.5091248 26.013412l26.437317 0l-6.81308 32.044098l-45.279175 0c-3.9987183 0 -5.5743103 -1.9993591 -4.7267456 -5.9980774l15.745026 -74.095856c0.8475342 -4.0204544 3.270691 -6.030678 7.2694397 -6.030678l70.11914 0l3.3250122 -15.614571l-11.213837 -10.3988495z" fill-rule="evenodd"/><path fill="#000000" fill-opacity="0.0" d="m347.72076 69.64761c-22.449432 0 -36.053802 11.2137985 -40.81317 33.641403l-15.093048 70.90123c-4.759369 22.427597 4.085663 33.641403 26.535065 33.641403l75.30231 0l17.863922 -84.103516l-55.286896 0l-5.5091248 26.013412l26.437317 0l-6.81308 32.044098l-45.279175 0c-3.9987183 0 -5.5743103 -1.9993744 -4.7267456 -5.9980927l15.745026 -74.09585c0.8475342 -4.020447 3.270691 -6.030678 7.2694397 -6.030678l70.11914 0l3.3250122 -15.614571l-11.213837 -10.398842z" fill-rule="evenodd"/><path stroke="#ffffff" stroke-width="4.0" stroke-linejoin="round" stroke-linecap="butt" d="m347.72076 69.64761c-22.449432 0 -36.053802 11.2137985 -40.81317 33.641403l-15.093048 70.90123c-4.759369 22.427597 4.085663 33.641403 26.535065 33.641403l75.30231 0l17.863922 -84.103516l-55.286896 0l-5.5091248 26.013412l26.437317 0l-6.81308 32.044098l-45.279175 0c-3.9987183 0 -5.5743103 -1.9993744 -4.7267456 -5.9980927l15.745026 -74.09585c0.8475342 -4.020447 3.270691 -6.030678 7.2694397 -6.030678l70.11914 0l3.3250122 -15.614571l-11.213837 -10.398842z" fill-rule="evenodd"/><path fill="#844605" d="m591.98596 216.88782c8.18988 3.6614227 37.578735 6.1666718 45.094482 0c7.515747 -6.1666718 2.890625 -22.451004 0 -37.0c-2.890625 -14.548996 -10.8880005 -35.263336 -17.343811 -50.29396c-6.4558105 -15.030624 -14.453613 -33.337708 -21.391052 -39.88977c-6.9375 -6.5520554 -17.632141 -3.951004 -20.233643 0.5774307c-2.6014404 4.5284348 3.3722534 17.150917 4.624695 26.593178c1.2523804 9.442253 2.1189575 20.425201 2.8897705 30.060364c0.77075195 9.635178 1.34906 19.75328 1.7349243 27.750656c0.38580322 7.9973755 -0.19073486 13.199921 0.5800171 20.233597c0.770813 7.0336914 -4.1452026 18.307083 4.0446167 21.968506z" fill-rule="evenodd"/><path fill="#783f04" d="m586.3579 99.63365l0 0c-2.661377 -7.0709915 0.91326904 -14.960648 7.984253 -17.622047l0 0c3.39563 -1.2780533 7.159851 -1.1548615 10.4646 0.3424759c3.3048096 1.4973373 5.8793945 4.24617 7.1574707 7.6417694l0 0c2.661377 7.070984 -0.91326904 14.960648 -7.984253 17.622047l0 0c-7.070984 2.6614075 -14.960693 -0.9132614 -17.62207 -7.9842453z" fill-rule="evenodd"/><path fill="#4d2903" d="m599.782 105.841034l0 0c-0.31311035 -0.8610382 0.7022095 -2.038498 2.2677002 -2.629921l0 0c1.5655518 -0.59142303 3.088501 -0.37285614 3.4016113 0.4881897l0 0c0.31311035 0.8610382 -0.7022095 2.038498 -2.2677002 2.629921l0 0c-1.5655518 0.59142303 -3.088501 0.37285614 -3.4016113 -0.4881897z" fill-rule="evenodd"/><path fill="#4d2903" d="m602.63214 98.886055l0 0c-0.47833252 -1.2524261 0.40301514 -2.7471619 1.9685059 -3.338585l0 0c1.5655518 -0.59142303 3.2224731 -0.05557251 3.7008057 1.1968536l0 0c0.47833252 1.2524261 -0.4029541 2.7471619 -1.9685059 3.338585l0 0c-1.5655518 0.59142303 -3.222412 0.05557251 -3.7008057 -1.1968536z" fill-rule="evenodd"/><path fill="#4d2903" d="m593.6277 102.280655l0 0c-0.47839355 -1.2524261 0.4029541 -2.7471619 1.9685059 -3.338585l0 0c1.5654907 -0.59142303 3.222412 -0.05557251 3.7007446 1.1968536l0 0c0.47839355 1.2524261 -0.4029541 2.7471619 -1.9685059 3.338585l0 0c-1.5654907 0.59142303 -3.222412 0.05557251 -3.7007446 -1.1968536z" fill-rule="evenodd"/><path fill="#429c3f" d="m582.18384 90.23052c-1.6762695 -1.5323715 -2.6815186 -8.573051 -4.8845215 -12.3569565c-2.202942 -3.7838974 -3.8311157 -6.3713837 -8.333313 -10.346451c-4.5021973 -3.9750671 -15.039795 -10.391079 -18.67981 -13.503941c-3.6399536 -3.1128578 -1.5800171 -4.6461067 -3.1600952 -5.1732254c-1.5800781 -0.5271225 -3.015747 1.7230949 -6.3201904 2.010498c-3.3045044 0.2873993 -8.71698 -0.71741104 -13.506592 -0.28609085c-4.789612 0.4313202 -14.08136 3.7362213 -15.230957 2.8740158c-1.1496277 -0.8622055 3.112854 -5.844269 8.333313 -8.047245c5.220459 -2.2029724 15.182861 -5.3622017 22.989502 -5.170601c7.8066406 0.1916008 19.636047 4.165352 23.850403 6.3202095c4.2143555 2.1548538 0.19030762 6.0341187 1.435669 6.608925c1.2454224 0.5748024 3.2108765 -5.4588814 6.036804 -3.1601067c2.8258667 2.2987747 8.811462 10.774715 10.918579 16.952755c2.1071777 6.1780396 2.2992554 16.235786 1.7244263 20.115486c-0.57476807 3.8796997 -3.4969482 4.695099 -5.173218 3.1627274z" fill-rule="evenodd"/><path fill="#783f04" d="m557.6522 86.20244l0 0c7.5319824 -5.41848 18.030396 -3.7051773 23.448853 3.8267746l0 0c2.6020508 3.6169662 3.6607056 8.119453 2.9429932 12.5169525c-0.71765137 4.3975067 -3.152771 8.329819 -6.7697754 10.931862l0 0c-7.5319214 5.41848 -18.030334 3.7051773 -23.448792 -3.826767l0 0c-5.418518 -7.531952 -3.7052002 -18.030342 3.8267212 -23.448822z" fill-rule="evenodd"/><path fill="#4d2903" d="m554.5903 104.1071l0 0c0.92193604 -0.6610031 2.642273 0.15687561 3.8425293 1.8267746l0 0c1.2002563 1.669899 1.4258423 3.5594711 0.50390625 4.2204666l0 0c-0.921875 0.6610031 -2.642273 -0.15686798 -3.8424683 -1.826767l0 0c-1.2002563 -1.669899 -1.4259033 -3.5594711 -0.5039673 -4.2204742z" fill-rule="evenodd"/><path fill="#4d2903" d="m563.72943 105.23315l0 0c1.3394165 -0.9654083 3.3981934 -0.39431 4.5984497 1.275589l0 0c1.2001953 1.669899 1.0874023 3.806244 -0.25201416 4.771652l0 0c-1.3393555 0.96541595 -3.3981323 0.39431 -4.5983887 -1.275589l0 0c-1.2002563 -1.669899 -1.0874634 -3.806244 0.25195312 -4.771652z" fill-rule="evenodd"/><path fill="#4d2903" d="m556.8309 95.64778l0 0c1.3394165 -0.9654083 3.3981934 -0.39431 4.5984497 1.275589l0 0c1.2001953 1.6699066 1.0874023 3.806244 -0.25201416 4.77166l0 0c-1.3393555 0.9654083 -3.3981323 0.39431 -4.5983887 -1.2755966l0 0c-1.2002563 -1.669899 -1.0874634 -3.8062363 0.25195312 -4.771652z" fill-rule="evenodd"/><path fill="#47ad44" d="m584.02026 87.87824c-1.0100708 -2.7090988 4.2698975 -11.617676 6.887146 -17.632545c2.6171875 -6.0148773 4.8674316 -12.534122 8.816223 -18.456696c3.9488525 -5.922573 9.367065 -13.038494 14.876648 -17.07874c5.5096436 -4.040247 12.9470825 -5.831148 18.181152 -7.162731c5.234009 -1.331583 12.167053 -1.5153103 13.2230835 -0.8267708c1.0559692 0.6885376 -3.3057861 2.524496 -6.887146 4.958004c-3.5813599 2.4335098 -10.927856 6.1076126 -14.601074 9.6430435c-3.6732178 3.5354347 -5.005249 7.069992 -7.4382935 11.569557c-2.4331055 4.4995613 -4.864868 11.295708 -7.160095 15.427818c-2.295288 4.1321106 -4.453186 6.334648 -6.6115723 9.36483c-2.1583252 3.030182 -3.1242065 7.1172333 -6.338562 8.816277c-3.2143555 1.6990356 -11.937439 4.0870514 -12.94751 1.3779526z" fill-rule="evenodd"/><path fill="#52c94f" d="m583.746 93.93853c-3.5809326 0.9641266 -14.828064 -2.2047272 -20.658752 -2.4803162c-5.8307495 -0.275589 -9.68811 0.045928955 -14.3255005 0.8267746c-4.637329 0.780838 -6.2440796 1.2410278 -13.498657 3.858261c-7.2545776 2.617241 -23.830292 10.146545 -30.02887 11.845146c-6.1986084 1.6986008 -5.9689636 -2.5717392 -7.1627502 -1.6535416c-1.1937866 0.91819763 2.892395 4.361763 0 7.1627274c-2.8923645 2.8009644 -13.543732 7.347336 -17.35431 9.6430435c-3.810608 2.2957153 -6.1058655 6.518814 -5.509186 4.131233c0.5966797 -2.3875732 5.5538025 -13.268585 9.089233 -18.456688c3.535431 -5.1881027 7.0266724 -8.539375 12.123352 -12.671921c5.0966797 -4.1325455 11.294403 -8.541992 18.456726 -12.12336c7.1622314 -3.5813599 16.390625 -7.8958817 24.517029 -9.36483c8.126404 -1.4689407 17.538086 -0.27514648 24.241455 0.5511856c6.70343 0.8263321 12.489502 2.6622925 15.979004 4.406822c3.489502 1.7445297 4.26947 3.6727905 4.958008 6.0603714c0.6885376 2.3875732 2.7541504 7.3009567 -0.8267822 8.265091z" fill-rule="evenodd"/><path fill="#52c94f" d="m585.9527 88.155c0.36743164 -2.2038498 7.944031 -10.606743 15.70343 -15.152237c7.7593994 -4.545494 21.303162 -10.376198 30.853027 -12.120731c9.549866 -1.7445335 18.59491 0.046806335 26.446167 1.6535416c7.8512573 1.606739 15.197754 4.4059486 20.661438 7.9868813c5.463684 3.580925 11.6154785 11.157043 12.120728 13.498688c0.505249 2.3416443 -3.4873047 1.8823242 -9.089233 0.551178c-5.6019287 -1.3311462 -19.562988 -6.0131226 -24.522339 -8.538055c-4.9592896 -2.5249329 -3.5349731 -6.519684 -5.2335815 -6.6115494c-1.6986084 -0.09186554 -0.22924805 4.6373596 -4.958008 6.060364c-4.72876 1.4230118 -17.629944 1.4216995 -23.414673 2.4776917c-5.78479 1.0559921 -7.115967 2.480751 -11.294006 3.8582687c-4.1780396 1.3775177 -9.22876 3.35083 -13.774231 4.406822c-4.545532 1.0559921 -13.86615 4.132988 -13.498718 1.9291382z" fill-rule="evenodd"/><path fill="#52c94f" d="m587.6432 90.80908c3.687622 1.6281738 17.911621 3.447075 25.0 5.745407c7.088379 2.2983398 12.549438 4.9317627 17.530151 8.044624c4.980774 3.1128616 8.523193 7.04068 12.35437 10.632545c3.8311157 3.591858 7.663147 6.8958893 10.632507 10.9186325c2.9694214 4.022743 5.890625 14.080055 7.183716 13.217842c1.2930908 -0.8621979 2.777832 -11.734024 0.5748291 -18.391068c-2.203003 -6.6570435 -9.195129 -16.52275 -13.792664 -21.551186c-4.597534 -5.0284348 -10.775574 -7.8530197 -13.792664 -8.619423c-3.0170288 -0.7664032 -3.1124268 4.3565216 -4.3096924 4.020996c-1.1972656 -0.33551788 -4.272461E-4 -4.502182 -2.8740234 -6.0341187c-2.8735352 -1.531929 -10.344238 -2.4873123 -14.367432 -3.1574783c-4.0231934 -0.670166 -6.227478 -1.0551224 -9.7716675 -0.86351776c-3.5441895 0.19160461 -9.098877 1.0069962 -11.493408 2.0131226c-2.3945923 1.0061264 -6.5617065 2.3954544 -2.8740234 4.0236206z" fill-rule="evenodd"/><path fill="#59d956" d="m584.48267 88.793526c-3.256836 0.1434784 -9.7699585 2.2983398 -14.367493 5.45932c-4.597534 3.1609802 -9.434387 8.238403 -13.217834 13.506561c-3.7834473 5.2681503 -7.0879517 11.492996 -9.482971 18.102364c-2.3949585 6.6093597 -4.312317 15.183731 -4.887085 21.553802c-0.5748291 6.3700714 0.33636475 14.942688 1.4382935 16.666672c1.1019287 1.7239685 3.6885376 -2.874466 5.173218 -6.3228455c1.4846802 -3.4483795 2.2502441 -10.727463 3.7349243 -14.367447c1.4846802 -3.6399841 3.2095337 -4.5507507 5.173218 -7.4724426c1.9636841 -2.921692 4.741455 -7.13649 6.6089478 -10.057739c1.8674316 -2.9212646 2.440918 -4.6443634 4.595764 -7.469818c2.1548462 -2.8254623 5.794861 -6.3219604 8.333374 -9.482941c2.5384521 -3.1609802 4.885803 -6.8967667 6.897644 -9.482941c2.0117798 -2.586174 5.173218 -4.2620316 5.173218 -6.0341187c0 -1.7720947 -1.9164429 -4.741905 -5.173218 -4.598427z" fill-rule="evenodd"/><path fill="#59d956" d="m583.0036 89.5198c-4.01355 -1.416008 -24.83551 -1.9829407 -34.845154 0c-10.009644 1.9829407 -18.366577 7.6959763 -25.212585 11.897636c-6.8460083 4.20166 -11.09494 8.166229 -15.863525 13.31234c-4.768585 5.146103 -10.151367 13.267715 -12.748047 17.564308c-2.5966492 4.296585 -2.3600159 5.618103 -2.8320007 8.21521c-0.47201538 2.5971222 -3.5411377 9.727921 0 7.367462c3.5411072 -2.3604584 17.280823 -16.855652 21.246735 -21.530182c3.9658813 -4.6745453 0.94311523 -5.5726166 2.548523 -6.517067c1.6054077 -0.94444275 1.1820068 2.5971146 7.0839844 0.8503952c5.9020386 -1.7467194 20.018372 -7.5533676 28.328125 -11.330704c8.309692 -3.7773438 16.147827 -8.028435 21.530151 -11.333336c5.382324 -3.3049011 14.777344 -7.080055 10.763794 -8.496063z" fill-rule="evenodd"/><path fill="#000000" fill-opacity="0.3987" d="m197.87927 275.0525l-6.4252014 -1.3858337l11.055115 -50.582672l6.4252014 1.3858337z" fill-rule="evenodd"/><path fill="#59d956" d="m585.2709 91.78519c0.6137085 3.6356125 5.570862 11.378395 7.08136 16.43045c1.510498 5.0520554 1.7458496 8.405075 1.9816284 13.881889c0.23577881 5.4768143 0.1885376 13.50219 -0.56695557 18.978996c-0.75549316 5.476822 -4.863098 12.654419 -3.9658813 13.881897c0.8972168 1.2274628 6.5161743 -2.5039368 9.34906 -6.5170593c2.8329468 -4.0131226 6.373596 -11.093613 7.6483154 -17.561676c1.2747192 -6.468071 3.0214233 -13.833778 0 -21.246727c-3.0214233 -7.4129486 -14.540649 -20.25634 -18.128601 -23.230972c-3.5879517 -2.9746246 -4.0126953 1.7475967 -3.3989258 5.3832016z" fill-rule="evenodd"/><path fill="#d9d9d9" d="m170.16466 94.13993l6.6141815 -1.6692886l35.87401 143.1496l-6.6141663 1.6692963z" fill-rule="evenodd"/><defs><radialGradient id="p.6" gradientUnits="userSpaceOnUse" gradientTransform="matrix(8.15961954990225 0.0 0.0 8.15961954990225 0.0 0.0)" spreadMethod="pad" cx="29.832749312111236" cy="5.9700971625439685" fx="29.832749312111236" fy="5.9700971625439685" r="8.159619331359863"><stop offset="0.0" stop-color="#ffd966"/><stop offset="0.64" stop-color="#ffd966" stop-opacity="0.0"/><stop offset="0.64000005" stop-color="#ffffff" stop-opacity="0.0"/><stop offset="1.0" stop-color="#ffffff" stop-opacity="0.0"/></radialGradient></defs><path fill="url(#p.6)" d="m196.35301 48.713722l0 0c0 -26.00522 21.074356 -47.086617 47.070877 -47.086617l0 0c12.483963 0 24.456635 4.9608965 33.28412 13.791349c8.827515 8.830454 13.786743 20.807117 13.786743 33.295265l0 0c0 26.005219 -21.07434 47.086617 -47.07086 47.086617l0 0c-25.996521 0 -47.070877 -21.081398 -47.070877 -47.086617z" fill-rule="evenodd"/><path fill="#fff2cc" d="m218.06036 48.719162l0 0c0 -14.011509 11.358582 -25.37008 25.370087 -25.37008l0 0c6.7285614 0 13.181549 2.6729126 17.939362 7.430725c4.7578125 4.7578106 7.430725 11.210791 7.430725 17.939356l0 0c0 14.011505 -11.358582 25.370079 -25.370087 25.370079l0 0c-14.011505 0 -25.370087 -11.358574 -25.370087 -25.370079z" fill-rule="evenodd"/><path fill="#7a00cb" d="m100.65832 143.44533l0 0c-8.906136 -35.520172 19.839302 -73.332726 64.20472 -84.456696c44.365433 -11.123974 87.55057 8.653053 96.456696 44.173225l0 0c-55.404694 2.4988556 -110.63205 16.346298 -160.6614 40.28347z" fill-rule="evenodd"/><path fill="#7a00cb" d="m174.15993 96.082535l0 0c44.365417 -11.12397 83.35542 -8.0780945 87.086624 6.803154l0 0c1.7917786 7.146225 -4.953247 16.121826 -18.75119 24.952286c-13.797943 8.830452 -33.5186 16.792412 -54.823624 22.13433l0 0c-44.365433 11.123962 -83.35543 8.0780945 -87.08662 -6.8031616l0 0c-1.7917786 -7.146225 4.953224 -16.121826 18.751175 -24.952278c13.797951 -8.830452 33.518593 -16.792412 54.82363 -22.13433z" fill-rule="evenodd"/><path fill="#d7ab52" d="m196.03423 229.51465c2.0555573 -2.0555573 4.185486 -4.9173126 6.167984 -6.165344c1.9824982 -1.2480316 3.6710358 -1.6163635 5.7270355 -1.3228455c2.0559845 0.29353333 4.8468933 1.6889801 6.608917 3.0839996c1.7620392 1.3950043 2.4217072 4.405075 3.9632568 5.286087c1.541565 0.88101196 3.6706085 -0.7340393 5.286087 0c1.6154938 0.7340393 4.920395 3.1561737 4.40683 4.4042053c-0.51356506 1.2480316 -4.0371857 2.2760162 -7.4881897 3.0839844c-3.451004 0.8079529 -9.032806 1.6902924 -13.21785 1.7637787c-4.1850433 0.07348633 -8.955811 -0.66185 -11.89238 -1.3228302c-2.9365845 -0.6609802 -5.8000946 -1.1745453 -5.7270355 -2.6430511c0.07304382 -1.4685059 4.109787 -4.1124268 6.165344 -6.167984z" fill-rule="evenodd"/><path fill="#000000" fill-opacity="0.0" d="m6.164057 50.27385l0 0c0 -24.431477 19.805626 -44.237103 44.237106 -44.237103l610.10846 0c11.732422 0 22.984253 4.6606812 31.280334 12.956749c8.296082 8.296066 12.956726 19.547945 12.956726 31.280355l0 176.94312c0 24.431473 -19.805603 44.237106 -44.23706 44.237106l-610.10846 0l0 0c-24.431479 0 -44.237106 -19.805634 -44.237106 -44.237106z" fill-rule="evenodd"/><path stroke="#000000" stroke-width="12.0" stroke-linejoin="round" stroke-linecap="butt" d="m6.164057 50.27385l0 0c0 -24.431477 19.805626 -44.237103 44.237106 -44.237103l610.10846 0c11.732422 0 22.984253 4.6606812 31.280334 12.956749c8.296082 8.296066 12.956726 19.547945 12.956726 31.280355l0 176.94312c0 24.431473 -19.805603 44.237106 -44.23706 44.237106l-610.10846 0l0 0c-24.431479 0 -44.237106 -19.805634 -44.237106 -44.237106z" fill-rule="evenodd"/><path fill="#000000" fill-opacity="0.0" d="m6.1640487 50.27516l0 0c0 -24.431477 19.805626 -44.237103 44.237106 -44.237103l610.1085 0c11.732361 0 22.984253 4.6606812 31.280334 12.956749c8.296082 8.296066 12.956726 19.547945 12.956726 31.280355l0 176.94312c0 24.431473 -19.805603 44.237106 -44.23706 44.237106l-610.1085 0l0 0c-24.431479 0 -44.237106 -19.805634 -44.237106 -44.237106z" fill-rule="evenodd"/><path stroke="#ffffff" stroke-width="4.0" stroke-linejoin="round" stroke-linecap="butt" d="m6.1640487 50.27516l0 0c0 -24.431477 19.805626 -44.237103 44.237106 -44.237103l610.1085 0c11.732361 0 22.984253 4.6606812 31.280334 12.956749c8.296082 8.296066 12.956726 19.547945 12.956726 31.280355l0 176.94312c0 24.431473 -19.805603 44.237106 -44.23706 44.237106l-610.1085 0l0 0c-24.431479 0 -44.237106 -19.805634 -44.237106 -44.237106z" fill-rule="evenodd"/><path fill="#84672d" d="m199.06221 238.56232c-0.024932861 -0.77297974 0.5568695 -2.7051697 0.7873993 -3.887146c0.23054504 -1.1819763 0.37184143 -2.2852173 0.59580994 -3.2047272c0.2239685 -0.9195099 0.43701172 -1.5293121 0.7480316 -2.3123322c0.3110199 -0.7830353 0.91075134 -1.4221344 1.118103 -2.3858337c0.20735168 -0.9636841 -0.23884583 -2.6426086 0.12599182 -3.3963165c0.3648224 -0.75372314 1.3337708 -0.87576294 2.0629883 -1.1259918c0.7292175 -0.25021362 1.5 -0.39631653 2.3123322 -0.37532043c0.8123474 0.020996094 2.1557312 0.24058533 2.5616913 0.50131226c0.40594482 0.26071167 0.07217407 0.5109253 -0.12599182 1.0629883c-0.1981659 0.552063 -0.83377075 1.5721741 -1.0629883 2.2493439c-0.22921753 0.6771698 -0.14567566 1.2615967 -0.31233215 1.8136444c-0.16667175 0.552063 -0.42738342 0.7699127 -0.68766785 1.4986877c-0.26028442 0.7287903 -0.64523315 1.8429565 -0.87402344 2.8740234c-0.22877502 1.0310516 -0.37358093 2.291336 -0.49868774 3.3123322c-0.12510681 1.0209961 -0.2099762 2.0529327 -0.25196838 2.8136444c-0.041992188 0.7607269 0.3333435 1.4798889 0 1.7506561c-0.33332825 0.27078247 -1.2707672 -0.05293274 -2.0 -0.12597656c-0.7292175 -0.07305908 -1.7817078 -0.26028442 -2.3753204 -0.31233215c-0.5936127 -0.05206299 -0.8324585 0.12510681 -1.1863556 0c-0.3538971 -0.12512207 -0.91207886 0.02230835 -0.9370117 -0.7506561z" fill-rule="evenodd"/></g></svg>