<svg version="1.1" viewBox="0.0 0.0 710.9160104986877 277.49343832021" fill="none" stroke="none" stroke-linecap="square" stroke-miterlimit="10" xmlns:xlink="http://www.w3.org/1999/xlink" xmlns="http://www.w3.org/2000/svg"><clipPath id="p.0"><path d="m0 0l710.916 0l0 277.49344l-710.916 0l0 -277.49344z" clip-rule="nonzero"/></clipPath><g clip-path="url(#p.0)"><path fill="#000000" fill-opacity="0.0" d="m0 0l710.916 0l0 277.49344l-710.916 0z" fill-rule="evenodd"/><defs><linearGradient id="p.1" gradientUnits="userSpaceOnUse" gradientTransform="matrix(16.29171112529147 0.0 0.0 16.29171112529147 0.0 0.0)" spreadMethod="pad" x1="0.3784359433727883" y1="0.37046625383952486" x2="0.37837694505422004" y2="16.662177379024165"><stop offset="0.0" stop-color="#8c8c8c"/><stop offset="1.0" stop-color="#404040"/></linearGradient></defs><path fill="url(#p.1)" d="m6.165369 50.27516l0 0c0 -24.431477 19.805626 -44.237103 44.237106 -44.237103l610.10846 0c11.732422 0 22.984314 4.6606812 31.280396 12.956749c8.2960205 8.296066 12.956726 19.547945 12.956726 31.280355l0 176.94312c0 24.431473 -19.805603 44.237106 -44.23712 44.237106l-610.10846 0l0 0c-24.431479 0 -44.237106 -19.805634 -44.237106 -44.237106z" fill-rule="evenodd"/><path stroke="#000000" stroke-width="12.0" stroke-linejoin="round" stroke-linecap="butt" d="m6.165369 50.27516l0 0c0 -24.431477 19.805626 -44.237103 44.237106 -44.237103l610.10846 0c11.732422 0 22.984314 4.6606812 31.280396 12.956749c8.2960205 8.296066 12.956726 19.547945 12.956726 31.280355l0 176.94312c0 24.431473 -19.805603 44.237106 -44.23712 44.237106l-610.10846 0l0 0c-24.431479 0 -44.237106 -19.805634 -44.237106 -44.237106z" fill-rule="evenodd"/><path fill="#000000" fill-opacity="0.0" d="m6.1666737 50.27516l0 0c0 -24.431477 19.805626 -44.237103 44.237106 -44.237103l610.1085 0c11.732361 0 22.984253 4.6606812 31.280334 12.956749c8.296082 8.296066 12.956726 19.547945 12.956726 31.280355l0 176.94312c0 24.431473 -19.805603 44.237106 -44.23706 44.237106l-610.1085 0l0 0c-24.431479 0 -44.237106 -19.805634 -44.237106 -44.237106z" fill-rule="evenodd"/><path stroke="#ffffff" stroke-width="4.0" stroke-linejoin="round" stroke-linecap="butt" d="m6.1666737 50.27516l0 0c0 -24.431477 19.805626 -44.237103 44.237106 -44.237103l610.1085 0c11.732361 0 22.984253 4.6606812 31.280334 12.956749c8.296082 8.296066 12.956726 19.547945 12.956726 31.280355l0 176.94312c0 24.431473 -19.805603 44.237106 -44.23706 44.237106l-610.1085 0l0 0c-24.431479 0 -44.237106 -19.805634 -44.237106 -44.237106z" fill-rule="evenodd"/><defs><linearGradient id="p.2" gradientUnits="userSpaceOnUse" gradientTransform="matrix(21.220125770052597 0.0 0.0 21.220125770052597 0.0 0.0)" spreadMethod="pad" x1="11.076094095342015" y1="11.900049462299517" x2="32.29621986539462" y2="11.900049462299517"><stop offset="0.0" stop-color="#ff0000"/><stop offset="0.25" stop-color="#ffff00"/><stop offset="0.5" stop-color="#00ff00"/><stop offset="0.75" stop-color="#4a86e8"/><stop offset="1.0" stop-color="#9900ff"/></linearGradient></defs><path fill="url(#p.2)" d="m271.12308 82.74063l-36.08696 169.77992l35.44612 0l15.179779 -71.37245l62.961945 0l-15.179749 71.37245l35.446136 0l36.086975 -169.77992l-35.446136 0l-14.138397 66.446075l-62.961975 0l14.138397 -66.446075z" fill-rule="evenodd"/><defs><linearGradient id="p.3" gradientUnits="userSpaceOnUse" gradientTransform="matrix(21.220125770052597 0.0 0.0 21.220125770052597 0.0 0.0)" spreadMethod="pad" x1="11.076094095342015" y1="11.900049462299517" x2="32.29621986539462" y2="11.900049462299517"><stop offset="0.0" stop-color="#ff0000"/><stop offset="0.25" stop-color="#ffff00"/><stop offset="0.5" stop-color="#00ff00"/><stop offset="0.75" stop-color="#4a86e8"/><stop offset="1.0" stop-color="#9900ff"/></linearGradient></defs><path fill="url(#p.3)" d="m433.4524 122.592255l-19.184967 90.076675c-5.6340027 26.567749 4.832947 39.851624 31.400879 39.851624l71.853546 0l27.635925 -129.9283l-33.964172 0l-21.347809 100.410065l-35.926758 0c-5.23349 0 -7.2894897 -2.630066 -6.16803 -7.8902283l19.665588 -92.51984z" fill-rule="evenodd"/><defs><linearGradient id="p.4" gradientUnits="userSpaceOnUse" gradientTransform="matrix(21.220125770052597 0.0 0.0 21.220125770052597 0.0 0.0)" spreadMethod="pad" x1="11.076094095342015" y1="11.900049462299517" x2="32.29621986539462" y2="11.900049462299517"><stop offset="0.0" stop-color="#ff0000"/><stop offset="0.25" stop-color="#ffff00"/><stop offset="0.5" stop-color="#00ff00"/><stop offset="0.75" stop-color="#4a86e8"/><stop offset="1.0" stop-color="#9900ff"/></linearGradient></defs><path fill="url(#p.4)" d="m644.18805 152.11049c5.260193 0 7.32959 2.6300812 6.20813 7.890213l-11.695251 55.11139c-1.12146 5.2601624 -4.312256 7.8902283 -9.572449 7.8902283l-35.926758 0l15.05957 -70.89183zm-52.5484 -81.70583l-38.690308 182.1159l71.853516 0c26.594604 0 42.708923 -13.2838745 48.342896 -39.851624l10.69397 -50.22505c5.6607056 -26.567749 -4.8062744 -39.851624 -31.400879 -39.851624l-37.889343 0l11.054382 -52.1876z" fill-rule="evenodd"/><path fill="#ff0000" d="m115.459145 24.981468c-36.960075 0 -59.357952 18.462101 -67.193634 55.386307l-24.84876 116.729866c-7.835679 36.92421 6.7265205 55.386307 43.686592 55.386307l123.975464 0l29.41063 -138.46576l-91.022675 0l-9.070076 42.82778l43.52558 0l-11.216827 52.75653l-74.54628 0c-6.5834045 0 -9.177406 -3.2917023 -7.7820053 -9.875076l25.922142 -121.98942c1.3953934 -6.619156 5.3847885 -9.928749 11.968193 -9.928749l115.442085 0l5.474243 -25.707401l-18.462143 -17.12038z" fill-rule="evenodd"/><path fill="#ffffff" fill-opacity="0.3987" d="m115.459145 24.983425c-36.960075 0 -59.357952 18.462101 -67.193634 55.38631l-24.84876 116.72986c-7.835679 36.92421 6.7265205 55.386307 43.686592 55.386307l123.975464 0l29.41063 -138.46576l-91.022675 0l-9.070076 42.82778l43.52558 0l-11.216827 52.75653l-74.54628 0c-6.5834045 0 -9.177406 -3.2917023 -7.7820053 -9.875076l25.922142 -121.98941c1.3953934 -6.6191635 5.3847885 -9.928749 11.968193 -9.928749l115.442085 0l5.474243 -25.707405l-18.462143 -17.12038z" fill-rule="evenodd"/><path fill="#ffffff" fill-opacity="0.3987" d="m271.12308 82.74063l-36.08696 169.77992l35.44612 0l15.179779 -71.37245l62.961945 0l-15.179749 71.37245l35.446136 0l36.086975 -169.77992l-35.446136 0l-14.138397 66.446075l-62.961975 0l14.138397 -66.446075z" fill-rule="evenodd"/><path fill="#ffffff" fill-opacity="0.3987" d="m433.4524 122.592255l-19.184967 90.076675c-5.6340027 26.567749 4.832947 39.851624 31.400879 39.851624l71.853546 0l27.635925 -129.9283l-33.964172 0l-21.347809 100.410065l-35.926758 0c-5.23349 0 -7.2894897 -2.630066 -6.16803 -7.8902283l19.665588 -92.51984z" fill-rule="evenodd"/><path fill="#ffffff" fill-opacity="0.3987" d="m644.18805 152.11049c5.260193 0 7.32959 2.6300812 6.20813 7.890213l-11.695251 55.11139c-1.12146 5.2601624 -4.312256 7.8902283 -9.572449 7.8902283l-35.926758 0l15.05957 -70.89183zm-52.5484 -81.70583l-38.690308 182.1159l71.853516 0c26.594604 0 42.708923 -13.2838745 48.342896 -39.851624l10.69397 -50.22505c5.6607056 -26.567749 -4.8062744 -39.851624 -31.400879 -39.851624l-37.889343 0l11.054382 -52.1876z" fill-rule="evenodd"/><defs><linearGradient id="p.5" gradientUnits="userSpaceOnUse" gradientTransform="matrix(15.085550924153384 0.0 0.0 15.085550924153384 0.0 0.0)" spreadMethod="pad" x1="1.4162224696624803" y1="1.6540598933755644" x2="1.4131502777031462" y2="16.739610504701012"><stop offset="0.0" stop-color="#ffffff" stop-opacity="0.8039216"/><stop offset="0.5" stop-color="#ffffff" stop-opacity="0.0"/><stop offset="1.0" stop-color="#ffffff" stop-opacity="0.0"/></linearGradient></defs><path fill="url(#p.5)" d="m115.475006 24.994734c-36.964867 0 -59.365646 18.46446 -67.20235 55.39338l-24.851982 116.744774c-7.8366947 36.92891 6.727392 55.39337 43.692257 55.39337l123.99154 0l29.414444 -138.48344l-91.034485 0l-9.071243 42.833252l43.531235 0l-11.218292 52.763275l-74.55595 0c-6.5842514 0 -9.178589 -3.2921295 -7.78302 -9.876343l25.925507 -122.005c1.3955765 -6.6200104 5.3854904 -9.930016 11.969749 -9.930016l115.45705 0l5.4749603 -25.71069l-18.464539 -17.122564z" fill-rule="evenodd"/><defs><linearGradient id="p.6" gradientUnits="userSpaceOnUse" gradientTransform="matrix(13.499284905540092 0.0 0.0 13.499284905540092 0.0 0.0)" spreadMethod="pad" x1="17.413328514840003" y1="5.209957714592818" x2="17.41057914688666" y2="18.70924234015422"><stop offset="0.0" stop-color="#ffffff" stop-opacity="0.8039216"/><stop offset="0.5" stop-color="#ffffff" stop-opacity="0.0"/><stop offset="1.0" stop-color="#ffffff" stop-opacity="0.0"/></linearGradient></defs><path fill="url(#p.6)" d="m271.15912 82.75996l-36.09166 169.80142l35.45076 0l15.181732 -71.381485l62.970123 0l-15.181732 71.381485l35.450745 0l36.091644 -169.80142l-35.450745 0l-14.140228 66.45449l-62.970123 0l14.140228 -66.45449z" fill-rule="evenodd"/><defs><linearGradient id="p.7" gradientUnits="userSpaceOnUse" gradientTransform="matrix(13.499284905540092 0.0 0.0 13.499284905540092 0.0 0.0)" spreadMethod="pad" x1="17.413328514840003" y1="5.209957714592818" x2="17.41057914688666" y2="18.70924234015422"><stop offset="0.0" stop-color="#ffffff" stop-opacity="0.8039216"/><stop offset="0.5" stop-color="#ffffff" stop-opacity="0.0"/><stop offset="1.0" stop-color="#ffffff" stop-opacity="0.0"/></linearGradient></defs><path fill="url(#p.7)" d="m433.5095 122.61662l-19.187439 90.08809c-5.634735 26.571121 4.833557 39.85666 31.404938 39.85666l71.862854 0l27.639587 -129.94475l-33.968628 0l-21.350586 100.422775l-35.931427 0c-5.2341614 0 -7.290436 -2.6303864 -6.1688232 -7.89122l19.668152 -92.531555z" fill-rule="evenodd"/><defs><linearGradient id="p.8" gradientUnits="userSpaceOnUse" gradientTransform="matrix(13.499284905540092 0.0 0.0 13.499284905540092 0.0 0.0)" spreadMethod="pad" x1="17.413328514840003" y1="5.209957714592818" x2="17.41057914688666" y2="18.70924234015422"><stop offset="0.0" stop-color="#ffffff" stop-opacity="0.8039216"/><stop offset="0.5" stop-color="#ffffff" stop-opacity="0.0"/><stop offset="1.0" stop-color="#ffffff" stop-opacity="0.0"/></linearGradient></defs><path fill="url(#p.8)" d="m644.2725 152.1386c5.2608643 0 7.3305054 2.6304169 6.2089233 7.89122l-11.696777 55.118362c-1.121582 5.2608337 -4.312805 7.89122 -9.573669 7.89122l-35.931458 0l15.061584 -70.9008zm-52.555237 -81.71618l-38.695374 182.13895l71.862854 0c26.598083 0 42.714478 -13.285538 48.349243 -39.85666l10.6953125 -50.231415c5.661438 -26.571106 -4.806885 -39.856674 -31.404968 -39.856674l-37.894226 0l11.055786 -52.194206z" fill-rule="evenodd"/><path fill="#000000" fill-opacity="0.0" d="m115.47435 24.98589c-36.964867 0 -59.365643 18.464458 -67.20234 55.393383l-24.851982 116.74477c-7.8366947 36.928925 6.727392 55.393387 43.692253 55.393387l123.99154 0l29.414444 -138.48346l-91.034485 0l-9.071236 42.833252l43.531227 0l-11.218277 52.763275l-74.555954 0c-6.584259 0 -9.1785965 -3.2921295 -7.78302 -9.876343l25.925499 -122.00499c1.3955765 -6.6200104 5.385498 -9.930016 11.969749 -9.930016l115.45706 0l5.474945 -25.71069l-18.464539 -17.122566z" fill-rule="evenodd"/><path stroke="#000000" stroke-width="12.0" stroke-linejoin="round" stroke-linecap="butt" d="m115.47435 24.98589c-36.964867 0 -59.365643 18.464458 -67.20234 55.393383l-24.851982 116.74477c-7.8366947 36.928925 6.727392 55.393387 43.692253 55.393387l123.99154 0l29.414444 -138.48346l-91.034485 0l-9.071236 42.833252l43.531227 0l-11.218277 52.763275l-74.555954 0c-6.584259 0 -9.1785965 -3.2921295 -7.78302 -9.876343l25.925499 -122.00499c1.3955765 -6.6200104 5.385498 -9.930016 11.969749 -9.930016l115.45706 0l5.474945 -25.71069l-18.464539 -17.122566z" fill-rule="evenodd"/><path fill="#000000" fill-opacity="0.0" d="m271.15912 82.753075l-36.09166 169.80142l35.45076 0l15.181732 -71.381485l62.970123 0l-15.181732 71.381485l35.450745 0l36.091644 -169.80142l-35.450745 0l-14.140228 66.454475l-62.970123 0l14.140228 -66.454475z" fill-rule="evenodd"/><path fill="#000000" fill-opacity="0.0" d="m433.5095 122.60974l-19.187439 90.08809c-5.634735 26.571106 4.833557 39.85666 31.404938 39.85666l71.862854 0l27.639587 -129.94475l-33.968628 0l-21.350586 100.422775l-35.931427 0c-5.2341614 0 -7.290436 -2.6304016 -6.1688232 -7.89122l19.668152 -92.531555z" fill-rule="evenodd"/><path fill="#000000" fill-opacity="0.0" d="m644.2725 152.13171c5.2608643 0 7.3305054 2.6304016 6.2089233 7.89122l-11.696777 55.118362c-1.121582 5.2608185 -4.312805 7.89122 -9.573669 7.89122l-35.931458 0l15.061584 -70.9008zm-52.555237 -81.71619l-38.695374 182.13896l71.862854 0c26.598083 0 42.714478 -13.285553 48.349243 -39.85666l10.6953125 -50.23143c5.661438 -26.571106 -4.806885 -39.85666 -31.404968 -39.85666l-37.894226 0l11.055786 -52.194214z" fill-rule="evenodd"/><path stroke="#000000" stroke-width="12.0" stroke-linejoin="round" stroke-linecap="butt" d="m271.15912 82.753075l-36.09166 169.80142l35.45076 0l15.181732 -71.381485l62.970123 0l-15.181732 71.381485l35.450745 0l36.091644 -169.80142l-35.450745 0l-14.140228 66.454475l-62.970123 0l14.140228 -66.454475z" fill-rule="evenodd"/><path stroke="#000000" stroke-width="12.0" stroke-linejoin="round" stroke-linecap="butt" d="m433.5095 122.60974l-19.187439 90.08809c-5.634735 26.571106 4.833557 39.85666 31.404938 39.85666l71.862854 0l27.639587 -129.94475l-33.968628 0l-21.350586 100.422775l-35.931427 0c-5.2341614 0 -7.290436 -2.6304016 -6.1688232 -7.89122l19.668152 -92.531555z" fill-rule="evenodd"/><path stroke="#000000" stroke-width="12.0" stroke-linejoin="round" stroke-linecap="butt" d="m644.2725 152.13171c5.2608643 0 7.3305054 2.6304016 6.2089233 7.89122l-11.696777 55.118362c-1.121582 5.2608185 -4.312805 7.89122 -9.573669 7.89122l-35.931458 0l15.061584 -70.9008zm-52.555237 -81.71619l-38.695374 182.13896l71.862854 0c26.598083 0 42.714478 -13.285553 48.349243 -39.85666l10.6953125 -50.23143c5.661438 -26.571106 -4.806885 -39.85666 -31.404968 -39.85666l-37.894226 0l11.055786 -52.194214z" fill-rule="evenodd"/><path fill="#000000" fill-opacity="0.0" d="m115.475006 24.987846c-36.964867 0 -59.365646 18.464458 -67.20235 55.39338l-24.851982 116.74477c-7.8366947 36.928925 6.727392 55.393387 43.692257 55.393387l123.99154 0l29.414444 -138.48346l-91.034485 0l-9.071243 42.83326l43.531235 0l-11.218292 52.76326l-74.55595 0c-6.5842514 0 -9.178589 -3.2921143 -7.78302 -9.876343l25.925507 -122.00499c1.3955765 -6.6200027 5.3854904 -9.930016 11.969749 -9.930016l115.45705 0l5.4749603 -25.710686l-18.464539 -17.122566z" fill-rule="evenodd"/><path stroke="#ffffff" stroke-width="4.0" stroke-linejoin="round" stroke-linecap="butt" d="m115.475006 24.987846c-36.964867 0 -59.365646 18.464458 -67.20235 55.39338l-24.851982 116.74477c-7.8366947 36.928925 6.727392 55.393387 43.692257 55.393387l123.99154 0l29.414444 -138.48346l-91.034485 0l-9.071243 42.83326l43.531235 0l-11.218292 52.76326l-74.55595 0c-6.5842514 0 -9.178589 -3.2921143 -7.78302 -9.876343l25.925507 -122.00499c1.3955765 -6.6200027 5.3854904 -9.930016 11.969749 -9.930016l115.45705 0l5.4749603 -25.710686l-18.464539 -17.122566z" fill-rule="evenodd"/><path fill="#000000" fill-opacity="0.0" d="m271.15912 82.753075l-36.09166 169.80142l35.45076 0l15.181732 -71.381485l62.970123 0l-15.181732 71.381485l35.450745 0l36.091644 -169.80142l-35.450745 0l-14.140228 66.454475l-62.970123 0l14.140228 -66.454475z" fill-rule="evenodd"/><path fill="#000000" fill-opacity="0.0" d="m433.5095 122.60974l-19.187439 90.08809c-5.634735 26.571106 4.833557 39.85666 31.404938 39.85666l71.862854 0l27.639587 -129.94475l-33.968628 0l-21.350586 100.422775l-35.931427 0c-5.2341614 0 -7.290436 -2.6304016 -6.1688232 -7.89122l19.668152 -92.531555z" fill-rule="evenodd"/><path fill="#000000" fill-opacity="0.0" d="m644.2725 152.13171c5.2608643 0 7.3305054 2.6304016 6.2089233 7.89122l-11.696777 55.118362c-1.121582 5.2608185 -4.312805 7.89122 -9.573669 7.89122l-35.931458 0l15.061584 -70.9008zm-52.555237 -81.71619l-38.695374 182.13896l71.862854 0c26.598083 0 42.714478 -13.285553 48.349243 -39.85666l10.6953125 -50.23143c5.661438 -26.571106 -4.806885 -39.85666 -31.404968 -39.85666l-37.894226 0l11.055786 -52.194214z" fill-rule="evenodd"/><path stroke="#ffffff" stroke-width="4.0" stroke-linejoin="round" stroke-linecap="butt" d="m271.15912 82.753075l-36.09166 169.80142l35.45076 0l15.181732 -71.381485l62.970123 0l-15.181732 71.381485l35.450745 0l36.091644 -169.80142l-35.450745 0l-14.140228 66.454475l-62.970123 0l14.140228 -66.454475z" fill-rule="evenodd"/><path stroke="#ffffff" stroke-width="4.0" stroke-linejoin="round" stroke-linecap="butt" d="m433.5095 122.60974l-19.187439 90.08809c-5.634735 26.571106 4.833557 39.85666 31.404938 39.85666l71.862854 0l27.639587 -129.94475l-33.968628 0l-21.350586 100.422775l-35.931427 0c-5.2341614 0 -7.290436 -2.6304016 -6.1688232 -7.89122l19.668152 -92.531555z" fill-rule="evenodd"/><path stroke="#ffffff" stroke-width="4.0" stroke-linejoin="round" stroke-linecap="butt" d="m644.2725 152.13171c5.2608643 0 7.3305054 2.6304016 6.2089233 7.89122l-11.696777 55.118362c-1.121582 5.2608185 -4.312805 7.89122 -9.573669 7.89122l-35.931458 0l15.061584 -70.9008zm-52.555237 -81.71619l-38.695374 182.13896l71.862854 0c26.598083 0 42.714478 -13.285553 48.349243 -39.85666l10.6953125 -50.23143c5.661438 -26.571106 -4.806885 -39.85666 -31.404968 -39.85666l-37.894226 0l11.055786 -52.194214z" fill-rule="evenodd"/></g></svg>