<svg version="1.1" viewBox="0.0 0.0 1889.763779527559 1889.763779527559" fill="none" stroke="none" stroke-linecap="square" stroke-miterlimit="10" xmlns:xlink="http://www.w3.org/1999/xlink" xmlns="http://www.w3.org/2000/svg"><clipPath id="p.0"><path d="m0 0l1889.7638 0l0 1889.7638l-1889.7638 0l0 -1889.7638z" clip-rule="nonzero"/></clipPath><g clip-path="url(#p.0)"><path fill="#000000" fill-opacity="0.0" d="m0 0l1889.7638 0l0 1889.7638l-1889.7638 0z" fill-rule="evenodd"/><path fill="#000000" d="m-15.748032 -15.748032l1921.2599 0l0 1921.2599l-1921.2599 0z" fill-rule="evenodd"/><path fill="#be28ff" d="m251.9685 944.8819l509.177 -183.73639l183.73639 -509.177l183.73639 509.177l509.177 183.73639l-509.177 183.73639l-183.73639 509.177l-183.73639 -509.177z" fill-rule="evenodd"/><path fill="#d064ff" d="m322.83466 944.8819l504.4303 -117.61694l117.61694 -504.4303l117.61688 504.4303l504.4303 117.61694l-504.4303 117.61688l-117.61688 504.4303l-117.61694 -504.4303z" fill-rule="evenodd"/><path fill="#e3a3ff" d="m413.46405 944.88135l482.17657 -49.240723l49.240723 -482.17657l49.240784 482.17657l482.17657 49.240723l-482.17657 49.240784l-49.240784 482.17657l-49.240723 -482.17657z" fill-rule="evenodd"/></g></svg>